<svg width="1200" height="200" viewBox="0 0 1200 200" fill="none" xmlns="http://www.w3.org/2000/svg">
<g clip-path="url(#clip0_17_363)">
<path fill-rule="evenodd" clip-rule="evenodd" d="M691.667 -50.7856C691.667 15.4808 711.967 62.9424 787.277 93.6C862.586 124.257 935.348 96.2816 1008.34 112.32C1081.33 128.358 1081.33 231.676 1150.07 295.257C1218.81 358.838 1363.74 374.282 1481.59 309.777C1599.43 245.271 1652.85 94.66 1617.64 5.85519C1582.43 -82.9496 1514.95 -164 1189.36 -164C863.774 -164 691.667 -117.051 691.667 -50.7856ZM-219.459 456.727C-194.722 518.592 -158.052 555.918 -76.3008 558.629C5.45087 561.341 62.9367 510.191 137.068 500.053C211.2 489.914 249.768 586.369 337.677 622.078C425.583 657.789 566.656 622.345 652.593 521.581C738.534 420.817 732.184 261.832 666.16 191.038C600.135 120.246 506.881 67.7944 202.917 179.808C-101.047 291.822 -244.197 394.862 -219.459 456.727ZM-428.333 -301.986C-428.333 -235.719 -408.033 -188.258 -332.723 -157.6C-257.414 -126.943 -184.652 -154.918 -111.659 -138.88C-38.6674 -122.842 -38.6674 -19.524 30.0717 44.0568C98.8101 107.638 243.743 123.082 361.588 58.5768C479.434 -5.92877 532.855 -156.54 497.644 -245.345C462.433 -334.15 394.953 -415.2 69.3634 -415.2C-256.226 -415.2 -428.333 -368.251 -428.333 -301.986Z" fill="#4B3F6B"/>
</g>
<defs>
<clipPath id="clip0_17_363">
<rect width="1200" height="200" fill="white"/>
</clipPath>
</defs>
</svg>
