<svg width="862" height="114" viewBox="0 0 862 114" fill="none" xmlns="http://www.w3.org/2000/svg">
<g clip-path="url(#clip0_9_229)">
<path fill-rule="evenodd" clip-rule="evenodd" d="M496.847 -28.9478C496.847 8.82404 511.429 35.8772 565.527 53.352C619.624 70.8264 671.892 54.8805 724.325 64.0224C776.757 73.1643 776.757 132.055 826.135 168.296C875.512 204.537 979.622 213.34 1064.27 176.573C1148.93 139.805 1187.3 53.9562 1162.01 3.33743C1136.71 -47.2813 1088.24 -93.48 854.359 -93.48C620.478 -93.48 496.847 -66.7192 496.847 -28.9478ZM-157.645 260.334C-139.875 295.597 -113.534 316.873 -54.8094 318.418C3.91553 319.964 45.2095 290.809 98.4608 285.03C151.712 279.251 179.417 334.23 242.564 354.585C305.711 374.94 407.048 354.737 468.78 297.301C530.513 239.866 487.135 205.061 401 139.774C385 64.0224 266.59 2.31805 40.5 32.2174C-200 64.0224 -175.415 225.072 -157.645 260.334ZM-307.686 -172.132C-307.686 -134.36 -293.104 -107.307 -239.006 -89.832C-184.909 -72.3576 -132.641 -88.3035 -80.2085 -79.1616C-27.7761 -70.0197 11.6224 -65.1889 61 -28.9478C110.377 7.29324 99.8474 7.81993 184.5 -28.9478C97.259 -141.498 382.768 -89.2278 357.474 -139.847C332.181 -190.465 283.708 -236.664 49.826 -236.664C-184.056 -236.664 -307.686 -209.903 -307.686 -172.132Z" fill="#4B3F6B"/>
</g>
<defs>
<clipPath id="clip0_9_229">
<rect width="862" height="114" rx="10" fill="white"/>
</clipPath>
</defs>
</svg>
